<?xml version="1.0" encoding="UTF-8" standalone="no"?>
<!DOCTYPE svg PUBLIC "-//W3C//DTD SVG 1.1//EN" "http://www.w3.org/Graphics/SVG/1.1/DTD/svg11.dtd">
<svg width="100%" height="100%" viewBox="0 0 659 659" version="1.1" xmlns="http://www.w3.org/2000/svg" xmlns:xlink="http://www.w3.org/1999/xlink" xml:space="preserve" xmlns:serif="http://www.serif.com/" style="fill-rule:evenodd;clip-rule:evenodd;stroke-linejoin:round;stroke-miterlimit:2;">
    <g transform="matrix(1,0,0,1,-185.23882,-210.593917)">
        <g transform="matrix(12.110598,0,0,12.110598,-10181.933275,-8858.307522)">
            <g transform="matrix(1,0,0,1,443.954658,402.996177)">
                <rect x="421.1381" y="353.4707" width="35.555" height="38.1077" style="fill:white;"/>
            </g>
        </g>
        <g transform="matrix(12.110598,0,0,12.110598,-10181.933275,-8858.307522)">
            <g transform="matrix(1,0,0,1,-27.199819,49.037659)">
                <path d="M937.6407,713.4023L937.6407,740.6022C937.6407,748.1082 931.5468,754.2021 924.0408,754.2021L896.841,754.2021C889.335,754.2021 883.2411,748.1082 883.2411,740.6022L883.2411,713.4023C883.2411,705.8963 889.335,699.8024 896.841,699.8024L924.0408,699.8024C931.5468,699.8024 937.6407,705.8963 937.6407,713.4023ZM920.3542,711.7273L915.2599,720.6337C914.7387,721.5449 913.8038,722.1425 912.7581,722.233C911.7123,722.3235 910.6886,721.8954 910.0187,721.0873L902.4184,711.9199C901.5456,710.8671 900.1064,710.4746 898.8199,710.9386C897.5334,711.4025 896.676,712.6232 896.676,713.9908L896.676,740.7089C896.676,741.7069 897.3477,742.5799 898.3124,742.8355C899.2771,743.0911 900.2931,742.6654 900.7873,741.7984L905.6013,733.3528C906.1215,732.4402 907.0566,731.841 908.1031,731.7496C909.1496,731.6583 910.1744,732.0864 910.8448,732.8951L918.5424,742.1799C919.4032,743.2182 920.8227,743.6053 922.0914,743.1477C923.3602,742.6902 924.2059,741.4862 924.2059,740.1375L924.2059,712.751C924.2059,711.8162 923.5771,710.9984 922.6737,710.7583C921.7703,710.5182 920.8184,710.9159 920.3542,711.7273Z" style="fill:rgb(128,0,255);"/>
            </g>
        </g>
    </g>
</svg>
