<?xml version="1.0" encoding="UTF-8" standalone="no"?>
<!DOCTYPE svg PUBLIC "-//W3C//DTD SVG 1.1//EN" "http://www.w3.org/Graphics/SVG/1.1/DTD/svg11.dtd">
<svg width="100%" height="100%" viewBox="0 0 1920 1080" version="1.1" xmlns="http://www.w3.org/2000/svg" xmlns:xlink="http://www.w3.org/1999/xlink" xml:space="preserve" xmlns:serif="http://www.serif.com/" style="fill-rule:evenodd;clip-rule:evenodd;stroke-linejoin:round;stroke-miterlimit:2;">
    <g transform="matrix(12.110598,0,0,12.110598,-10181.933275,-8858.307522)">
        <g transform="matrix(1,0,0,1,443.954658,402.996177)">
            <rect x="421.1381" y="353.4707" width="35.555" height="38.1077" style="fill:white;"/>
        </g>
        <g transform="matrix(1.079543,0,0,1.079543,-364.728127,132.05885)">
            <path d="M1195.8111,611.6082C1193.8855,611.6082 1192.2809,611.3521 1190.9972,610.84C1189.7135,610.3279 1188.7481,609.4596 1188.1011,608.2352C1187.4546,607.0108 1187.1313,605.3526 1187.1313,603.2606C1187.1313,603.2606 1187.1422,588.1916 1187.1452,583.9296C1187.1457,583.316 1187.6432,582.8188 1188.2568,582.8188C1189.0464,582.8188 1190.1025,582.8188 1190.8924,582.8188C1191.1874,582.8188 1191.4702,582.936 1191.6787,583.1447C1191.8872,583.3533 1192.0042,583.6362 1192.004,583.9312C1192.0011,588.2478 1191.9907,603.6518 1191.9907,603.6518C1191.9907,604.769 1192.2924,605.6294 1192.8958,606.2329C1193.4993,606.8363 1194.3597,607.138 1195.4769,607.138L1197.9585,607.138C1198.2533,607.138 1198.536,607.2551 1198.7445,607.4636C1198.953,607.6721 1199.0701,607.9548 1199.0701,608.2496C1199.0701,608.9351 1199.0701,609.8111 1199.0701,610.4966C1199.0701,610.7914 1198.953,611.0741 1198.7445,611.2826C1198.536,611.4911 1198.2533,611.6082 1197.9585,611.6082C1197.0142,611.6082 1195.8111,611.6082 1195.8111,611.6082ZM1187.715,593.0081L1187.715,589.1979L1197.9585,589.1979C1198.2533,589.1979 1198.536,589.315 1198.7445,589.5235C1198.953,589.7319 1199.0701,590.0147 1199.0701,590.3095C1199.0701,590.8089 1199.0701,591.397 1199.0701,591.8965C1199.0701,592.1913 1198.953,592.474 1198.7445,592.6825C1198.536,592.8909 1198.2533,593.0081 1197.9585,593.0081C1195.0997,593.0081 1187.715,593.0081 1187.715,593.0081Z" style="fill-rule:nonzero;"/>
            <g transform="matrix(0.926318,0,0,0.926318,114.990835,-76.133964)">
                <path d="M1179.749,731.4937C1179.6291,731.4934 1179.5149,731.5449 1179.4356,731.6348C1179.3563,731.7248 1179.3197,731.8445 1179.335,731.9634C1179.4526,732.8393 1179.6602,733.65 1179.9593,734.3955C1180.4482,735.6131 1181.2056,736.5689 1182.2316,737.2627C1183.2576,737.9561 1184.5674,738.3028 1186.161,738.3028C1187.7606,738.3028 1189.0653,737.9674 1190.0752,737.2966C1190.8264,736.7976 1191.3693,736.2251 1191.7037,735.5793C1191.899,735.1701 1192.3121,734.9095 1192.7655,734.9095C1193.5052,734.8861 1194.6316,734.8861 1195.5551,734.8861C1195.9487,734.8859 1196.3173,735.0787 1196.5416,735.402C1196.766,735.7253 1196.8176,736.1381 1196.6797,736.5067C1196.2977,737.4779 1195.7859,738.3656 1195.1317,739.1652C1194.1329,740.3861 1192.8731,741.3269 1191.3523,741.9875C1189.8319,742.6477 1188.1015,742.9778 1186.161,742.9778C1184.097,742.9778 1182.2977,742.624 1180.763,741.9164C1179.2284,741.2087 1177.9635,740.2649 1176.9684,739.0851C1175.9733,737.9047 1175.2265,736.5818 1174.728,735.1163C1174.2299,733.6507 1173.9809,732.1507 1173.9809,730.616L1173.9809,729.7888C1173.9809,728.2141 1174.2299,726.6915 1174.728,725.2209C1175.2265,723.7503 1175.9707,722.4301 1176.9608,721.2604C1177.9509,720.0906 1179.1936,719.1593 1180.6891,718.4664C1182.1846,717.7735 1183.9201,717.427 1185.8956,717.427C1188.4816,717.427 1190.6359,717.9928 1192.3585,719.1243C1194.0815,720.2558 1195.3768,721.725 1196.2443,723.5319C1197.1118,725.3384 1197.5456,727.281 1197.5456,729.3597L1197.5456,730.2937C1197.5456,730.612 1197.4192,730.9172 1197.1941,731.1422C1196.9691,731.3673 1196.6639,731.4937 1196.3456,731.4937C1196.3456,731.4937 1182.4839,731.4937 1179.749,731.4937ZM1179.6334,726.9171C1179.5677,727.1514 1179.6154,727.4031 1179.7624,727.5971C1179.9095,727.7911 1180.1389,727.9051 1180.3823,727.9051C1182.6015,727.9071 1188.0599,727.9071 1190.7028,727.9071C1191.0868,727.9071 1191.4476,727.7235 1191.6735,727.413C1191.8994,727.1025 1191.963,726.7027 1191.8448,726.3374C1191.7662,726.0996 1191.6823,725.8691 1191.5893,725.6473C1191.1152,724.5162 1190.4066,723.6427 1189.4636,723.0268C1188.521,722.4103 1187.3316,722.1021 1185.8956,722.1021C1184.4319,722.1021 1183.2039,722.4364 1182.2115,723.1048C1181.2196,723.7733 1180.474,724.7118 1179.9745,725.9202C1179.8437,726.2371 1179.73,726.5693 1179.6334,726.9171Z"/>
            </g>
            <path d="M1239.0255,612.0998C1237.1123,612.0998 1235.4541,611.7744 1234.0509,611.1236C1232.6477,610.4728 1231.4835,609.5968 1230.5583,608.4958C1229.633,607.3943 1228.9402,606.1648 1228.4797,604.8072C1228.0197,603.4497 1227.7896,602.0732 1227.7896,600.6777L1227.7896,599.9114C1227.7896,598.4514 1228.0243,597.038 1228.4938,595.6711C1228.9637,594.3041 1229.668,593.0789 1230.6069,591.9953C1231.5458,590.9114 1232.7124,590.0465 1234.1066,589.4008C1235.5013,588.7547 1237.1232,588.4316 1238.9724,588.4316C1240.8881,588.4316 1242.5982,588.7969 1244.1025,589.5276C1245.6068,590.2582 1246.8122,591.2784 1247.7187,592.5881C1248.3909,593.5589 1248.844,594.6508 1249.0779,595.8639C1249.1384,596.1856 1249.0524,596.5175 1248.8434,596.7694C1248.6344,597.0214 1248.3241,597.1672 1247.9967,597.1672C1247.1034,597.1786 1245.9216,597.1786 1245.1242,597.1786C1244.6265,597.1783 1244.1896,596.8472 1244.0548,596.3681C1243.8208,595.5126 1243.3518,594.7754 1242.6647,594.152C1241.7668,593.3373 1240.536,592.93 1238.9724,592.93C1237.6255,592.93 1236.5072,593.2468 1235.6173,593.8806C1234.728,594.5143 1234.062,595.3836 1233.6194,596.4885C1233.1769,597.593 1232.9556,598.8616 1232.9556,600.2942C1232.9556,601.6628 1233.1696,602.9041 1233.5977,604.0179C1234.0262,605.1314 1234.6896,606.0071 1235.5879,606.6451C1236.4867,607.2827 1237.6325,607.6015 1239.0255,607.6015C1240.092,607.6015 1241.0089,607.4116 1241.7762,607.0318C1242.544,606.6519 1243.1579,606.1341 1243.6179,605.4781C1243.9239,605.042 1244.1501,604.5648 1244.2967,604.0465C1244.4291,603.5711 1244.8622,603.2422 1245.3557,603.2422C1246.1574,603.2299 1247.339,603.2299 1248.2288,603.2299C1248.5575,603.2298 1248.8695,603.3751 1249.0808,603.6269C1249.2921,603.8787 1249.3811,604.2111 1249.324,604.5348C1249.0846,605.7842 1248.6212,606.9055 1247.9216,607.8966C1246.9879,609.2196 1245.7551,610.2508 1244.2235,610.9904C1242.6918,611.73 1240.9592,612.0998 1239.0255,612.0998Z" style="fill-rule:nonzero;"/>
        </g>
        <g transform="matrix(1,0,0,1,-27.199819,49.037659)">
            <path d="M937.6407,713.4023L937.6407,740.6022C937.6407,748.1082 931.5468,754.2021 924.0408,754.2021L896.841,754.2021C889.335,754.2021 883.2411,748.1082 883.2411,740.6022L883.2411,713.4023C883.2411,705.8963 889.335,699.8024 896.841,699.8024L924.0408,699.8024C931.5468,699.8024 937.6407,705.8963 937.6407,713.4023ZM920.3542,711.7273L915.2599,720.6337C914.7387,721.5449 913.8038,722.1425 912.7581,722.233C911.7123,722.3235 910.6886,721.8954 910.0187,721.0873L902.4184,711.9199C901.5456,710.8671 900.1064,710.4746 898.8199,710.9386C897.5334,711.4025 896.676,712.6232 896.676,713.9908L896.676,740.7089C896.676,741.7069 897.3477,742.5799 898.3124,742.8355C899.2771,743.0911 900.2931,742.6654 900.7873,741.7984L905.6013,733.3528C906.1215,732.4402 907.0566,731.841 908.1031,731.7496C909.1496,731.6583 910.1744,732.0864 910.8448,732.8951L918.5424,742.1799C919.4032,743.2182 920.8227,743.6053 922.0914,743.1477C923.3602,742.6902 924.2059,741.4862 924.2059,740.1375L924.2059,712.751C924.2059,711.8162 923.5771,710.9984 922.6737,710.7583C921.7703,710.5182 920.8184,710.9159 920.3542,711.7273Z" style="fill:rgb(128,0,255);"/>
        </g>
    </g>
</svg>
