<svg xmlns="http://www.w3.org/2000/svg" viewBox="0 0 256 256">
  <path d="M80 140c0-22.1 17.9-40 40-40s40 17.9 40 40-17.9 40-40 40-40-17.9-40-40z" fill="#22c55e" opacity="0.2"/>
  <circle cx="120" cy="140" r="32" fill="none" stroke="#22c55e" stroke-width="6"/>
  <path d="M128 120l-8 16h10l-6 12" fill="none" stroke="#22c55e" stroke-width="4" stroke-linecap="round" stroke-linejoin="round"/>
  <path d="M180 140c0-22.1 17.9-40 40-40s40 17.9 40 40-17.9 40-40 40-40-17.9-40-40z" fill="#22c55e" opacity="0.2"/>
  <circle cx="220" cy="140" r="32" fill="none" stroke="#22c55e" stroke-width="6"/>
  <path d="M152 140h28M90 110h-30c-8 0-12 4-12 12v18c0 8 4 12 12 12h20" fill="none" stroke="#22c55e" stroke-width="6" stroke-linecap="round" stroke-linejoin="round"/>
  <path d="M152 140c0-15 8-28 20-35l30-18c6-4 14-2 16 4l8 20c2 6-2 12-8 14l-38 14" fill="#22c55e"/>
  <path d="M100 95l-15-25c-3-5-1-11 4-14l0 0c5-3 11-1 14 4l12 20" fill="#22c55e"/>
  <rect x="85" y="88" width="30" height="16" rx="4" fill="#22c55e"/>
  <path d="M152 108h20c6 0 10 4 10 10v12c0 6-4 10-10 10h-20" fill="none" stroke="#22c55e" stroke-width="6" stroke-linecap="round" stroke-linejoin="round"/>
</svg>